Coordinates
version=1
nRows=16
nColumns=40
inDegrees=yes

Units are S.I. units (second, meters, Newtons, ...)
If the header above contains a line with 'inDegrees', this indicates whether rotational values are in degrees (yes) or radians (no).

endheader
time	pelvis_tilt	pelvis_list	pelvis_rotation	pelvis_tx	pelvis_ty	pelvis_tz	hip_flexion_r	hip_adduction_r	hip_rotation_r	knee_angle_r	knee_angle_r_beta	ankle_angle_r	subtalar_angle_r	mtp_angle_r	hip_flexion_l	hip_adduction_l	hip_rotation_l	knee_angle_l	knee_angle_l_beta	ankle_angle_l	subtalar_angle_l	mtp_angle_l	lumbar_extension	lumbar_bending	lumbar_rotation	arm_flex_r	arm_add_r	arm_rot_r	elbow_flex_r	pro_sup_r	wrist_flex_r	wrist_dev_r	arm_flex_l	arm_add_l	arm_rot_l	elbow_flex_l	pro_sup_l	wrist_flex_l	wrist_dev_l
      2.50000000	     -0.17569501	      4.75154047	      2.89864403	     -0.32470750	      1.08391227	     -0.77988700	     10.06546383	     -2.72317567	    -13.19897350	     17.95306557	      0.31334010	     -4.19271163	      0.00000000	      0.00000000	     18.65028055	     -5.68013600	     -8.12583686	     87.21932139	      1.52226433	    -14.55651385	      0.00000000	      0.00000000	     -6.39867683	      0.90013126	      3.63344679	     89.93231496	    -17.06155699	     27.19272791	     34.73325722	     82.04421484	      0.00000000	      0.00000000	     89.93368020	     -6.99364547	     31.02502523	     38.00197357	     84.03295840	      0.00000000	      0.00000000
      2.50500000	     -0.17777452	      4.71092498	      2.92123508	     -0.32472087	      1.08388544	     -0.77972005	     10.06613305	     -2.70043886	    -13.34671227	     17.94774836	      0.31324730	     -4.15054884	      0.00000000	      0.00000000	     18.52646376	     -5.80993422	     -8.25479962	     87.31650513	      1.52396051	    -14.65498472	      0.00000000	      0.00000000	     -6.39603873	      0.95876107	      3.64257692	     89.93233714	    -17.07043770	     27.14765750	     34.74662964	     82.01451763	      0.00000000	      0.00000000	     89.93376182	     -6.98915465	     31.04777278	     37.97113127	     84.07928338	      0.00000000	      0.00000000
      2.51000000	     -0.13988864	      4.58719680	      2.96738728	     -0.32466488	      1.08391487	     -0.77950689	     10.00894126	     -2.58785466	    -13.59880254	     17.91329950	      0.31264606	     -4.25223327	      0.00000000	      0.00000000	     18.38782909	     -6.02717670	     -8.31902783	     87.49717815	      1.52711384	    -14.62403093	      0.00000000	      0.00000000	     -6.42482366	      1.10545909	      3.65385935	     89.93175854	    -17.09440010	     27.07255161	     34.75555213	     81.70916718	      0.00000000	      0.00000000	     89.93420762	     -6.93520579	     31.02226855	     37.91442521	     83.81753759	      0.00000000	      0.00000000
      2.51500000	     -0.16417702	      4.58715358	      2.96853602	     -0.32467606	      1.08385994	     -0.77928728	     10.05565716	     -2.59476540	    -13.60571852	     17.96821421	      0.31360450	     -4.19900917	      0.00000000	      0.00000000	     18.28147174	     -6.12935614	     -8.49349670	     87.58165007	      1.52858816	    -14.75050666	      0.00000000	      0.00000000	     -6.39924006	      1.12003718	      3.67537723	     89.93245673	    -17.08976384	     27.07275384	     34.77043649	     81.81940825	      0.00000000	      0.00000000	     89.93373504	     -6.97433780	     31.08109014	     37.90174592	     84.08366669	      0.00000000	      0.00000000
      2.52000000	     -0.19666500	      4.54447422	      3.00430597	     -0.32472439	      1.08375613	     -0.77911575	     10.09442850	     -2.55669810	    -13.68219816	     17.97677842	      0.31375397	     -4.21700934	      0.00000000	      0.00000000	     18.21579228	     -6.26052602	     -8.61571443	     87.72061362	      1.53101353	    -14.67442834	      0.00000000	      0.00000000	     -6.35685623	      1.17723257	      3.67183191	     89.93242338	    -17.08955838	     27.00181637	     34.76072402	     81.92303639	      0.00000000	      0.00000000	     89.93384093	     -6.97290786	     31.13976845	     37.85534313	     83.99891513	      0.00000000	      0.00000000
      2.52500000	     -0.20751572	      4.53170179	      3.01333415	     -0.32471765	      1.08369830	     -0.77892080	     10.12453668	     -2.54659200	    -13.71707633	     18.02006252	      0.31450942	     -4.17859309	      0.00000000	      0.00000000	     18.11132879	     -6.36516804	     -8.75185032	     87.81964903	      1.53274202	    -14.74892713	      0.00000000	      0.00000000	     -6.33616537	      1.19820181	      3.68646766	     89.93252746	    -17.09413523	     27.01313134	     34.76379781	     81.93229433	      0.00000000	      0.00000000	     89.93381137	     -6.98071763	     31.22796967	     37.83414225	     83.94843758	      0.00000000	      0.00000000
      2.53000000	     -0.21222852	      4.51042154	      3.04875249	     -0.32475398	      1.08361045	     -0.77879724	     10.15016629	     -2.54123095	    -13.84053819	     18.07897103	      0.31553757	     -4.15107892	      0.00000000	      0.00000000	     18.01508606	     -6.45856798	     -8.85276584	     87.95092164	      1.53503316	    -14.82224699	      0.00000000	      0.00000000	     -6.33586729	      1.23849314	      3.67986465	     89.93256144	    -17.09106896	     26.90502316	     34.80265204	     81.96862655	      0.00000000	      0.00000000	     89.93383461	     -6.95525041	     31.16231673	     37.80675578	     83.99698162	      0.00000000	      0.00000000
      2.53500000	     -0.21402795	      4.49166926	      3.04220204	     -0.32475352	      1.08355998	     -0.77861739	     10.16357403	     -2.52119132	    -13.85943470	     18.10066955	      0.31591628	     -4.17590328	      0.00000000	      0.00000000	     17.89769227	     -6.57949587	     -9.01455998	     88.06047756	      1.53694527	    -14.86860956	      0.00000000	      0.00000000	     -6.32693048	      1.27978437	      3.69142020	     89.93251631	    -17.05835876	     26.90475213	     34.79492865	     81.68522422	      0.00000000	      0.00000000	     89.93399093	     -6.97775434	     31.16663156	     37.77566407	     83.95924762	      0.00000000	      0.00000000
      2.54000000	     -0.22519206	      4.49106612	      3.08979149	     -0.32478590	      1.08351051	     -0.77850831	     10.18624523	     -2.52772039	    -13.92502437	     18.13153645	      0.31645501	     -4.15236073	      0.00000000	      0.00000000	     17.81012984	     -6.64348667	     -9.09094353	     88.12161030	      1.53801224	    -15.07841264	      0.00000000	      0.00000000	     -6.31449152	      1.29629207	      3.65023038	     89.93263475	    -17.03837074	     26.81301305	     34.81528596	     81.95576554	      0.00000000	      0.00000000	     89.93383324	     -6.99109727	     31.18565783	     37.75956880	     83.95600440	      0.00000000	      0.00000000
      2.54500000	     -0.27071075	      4.47772979	      3.10167516	     -0.32483660	      1.08342942	     -0.77835625	     10.25753955	     -2.51683944	    -13.93945552	     18.17138355	      0.31715047	     -4.17198225	      0.00000000	      0.00000000	     17.76987299	     -6.72529252	     -9.20427322	     88.23159534	      1.53993184	    -15.21833685	      0.00000000	      0.00000000	     -6.27719572	      1.31957840	      3.63838755	     89.93283250	    -17.01736706	     26.74006339	     34.80957854	     82.09831162	      0.00000000	      0.00000000	     89.93402870	     -7.01291274	     31.15041517	     37.75611017	     83.92842187	      0.00000000	      0.00000000
      2.55000000	     -0.23952495	      4.49591327	      3.13115237	     -0.32480005	      1.08340371	     -0.77824204	     10.24493020	     -2.53155013	    -14.03062356	     18.22985758	      0.31817104	     -4.14569878	      0.00000000	      0.00000000	     17.61638813	     -6.79890788	     -9.35655822	     88.30435037	      1.54120166	    -15.35856318	      0.00000000	      0.00000000	     -6.30112288	      1.31866674	      3.60844203	     89.93300861	    -17.00361105	     26.76581430	     34.84041808	     81.79430185	      0.00000000	      0.00000000	     89.93402918	     -7.03363950	     31.17382328	     37.75140664	     83.86554257	      0.00000000	      0.00000000
      2.55500000	     -0.27331175	      4.50865895	      3.14529508	     -0.32484241	      1.08330769	     -0.77807965	     10.29552400	     -2.53579294	    -13.99492778	     18.25017431	      0.31852563	     -4.13252411	      0.00000000	      0.00000000	     17.55629375	     -6.86185362	     -9.46374192	     88.36662125	      1.54228849	    -15.54377569	      0.00000000	      0.00000000	     -6.27182793	      1.30875339	      3.60635237	     89.93291779	    -17.00024626	     26.69939368	     34.85514542	     82.05201250	      0.00000000	      0.00000000	     89.93412988	     -7.04383427	     31.16834093	     37.76203140	     83.94183750	      0.00000000	      0.00000000
      2.56000000	     -0.26935220	      4.50811463	      3.17614129	     -0.32488291	      1.08325494	     -0.77797725	     10.30980114	     -2.53233214	    -14.00666271	     18.28932129	      0.31920887	     -4.15725615	      0.00000000	      0.00000000	     17.48064081	     -6.92433839	     -9.55826199	     88.47469018	      1.54417465	    -15.75772722	      0.00000000	      0.00000000	     -6.27353155	      1.32172934	      3.57521203	     89.93293268	    -16.97569768	     26.64282519	     34.84892580	     81.96865489	      0.00000000	      0.00000000	     89.93422016	     -7.05241725	     31.17776482	     37.76239196	     83.93425215	      0.00000000	      0.00000000
      2.56500000	     -0.27899097	      4.52104446	      3.22171641	     -0.32494217	      1.08314366	     -0.77786087	     10.34563043	     -2.53751335	    -14.00989323	     18.34086847	      0.32010854	     -4.13506284	      0.00000000	      0.00000000	     17.40359151	     -6.97556844	     -9.62214765	     88.56697036	      1.54578524	    -15.97050423	      0.00000000	      0.00000000	     -6.26491569	      1.31165185	      3.53519390	     89.93306486	    -16.97978380	     26.66751506	     34.86519540	     81.99080664	      0.00000000	      0.00000000	     89.93439172	     -7.04715089	     31.12442694	     37.75058529	     83.93740624	      0.00000000	      0.00000000
      2.57000000	     -0.28955155	      4.54878430	      3.26597864	     -0.32493483	      1.08307208	     -0.77774825	     10.36808346	     -2.55054538	    -13.96668830	     18.38659954	      0.32090670	     -4.16213230	      0.00000000	      0.00000000	     17.31034603	     -6.99977286	     -9.68802311	     88.59250890	      1.54623097	    -16.19640587	      0.00000000	      0.00000000	     -6.25178607	      1.29154990	      3.48864812	     89.93319729	    -16.96280458	     26.64376888	     34.87264112	     81.99620982	      0.00000000	      0.00000000	     89.93440818	     -7.06748293	     31.11490099	     37.75787019	     83.97348116	      0.00000000	      0.00000000
      2.57500000	     -0.29927232	      4.57990002	      3.34127238	     -0.32497851	      1.08295129	     -0.77766985	     10.38165689	     -2.57372808	    -14.00237997	     18.40631390	      0.32125078	     -4.12977893	      0.00000000	      0.00000000	     17.25292944	     -7.03149533	     -9.75776965	     88.69230964	      1.54797282	    -16.42714146	      0.00000000	      0.00000000	     -6.24432553	      1.26939957	      3.39830466	     89.93342120	    -16.92435137	     26.60816108	     34.87167492	     82.04215262	      0.00000000	      0.00000000	     89.93445569	     -7.09483575	     31.08360983	     37.77605764	     83.92467968	      0.00000000	      0.00000000
